<?xml version="1.0" encoding="iso-8859-1"?>
<!-- Generator: Adobe Illustrator 19.0.0, SVG Export Plug-In . SVG Version: 6.00 Build 0)  -->
<svg xmlns="http://www.w3.org/2000/svg" xmlns:xlink="http://www.w3.org/1999/xlink" version="1.1"
    id="Capa_1" x="0px" y="0px" viewBox="0 0 460 460" style="enable-background:new 0 0 460 460;"
    xml:space="preserve" width="512" height="512">
<g id="XMLID_1192_">
	<path id="XMLID_825_" style="fill:#361C0A;" d="M389.408,306.311c-4.183,5.096-8.63,10.046-13.364,14.816   c-41.736,42.059-96.769,62.521-151.461,61.438V460h-19.846v-78.759V370v-3.322c0-2.956,2.531-5.256,5.451-4.968   c54.217,5.358,110.296-12.877,151.823-54.726c4.74-4.777,9.169-9.748,13.299-14.882L389.408,306.311z"/>
	<path id="XMLID_1364_" style="fill:#7C4627;" d="M96.607,460c3.991-17.192,19.289-30,37.565-30h2   c3.787-17.472,19.219-30.556,37.692-30.556h81.59c18.473,0,33.906,13.084,37.692,30.556h2c18.276,0,33.574,12.808,37.565,30H96.607   z M383.06,328.198L74.326,17.071c-3.875-3.905-3.875-10.237,0-14.142l0,0c3.875-3.905,10.158-3.905,14.033,0l308.735,311.127   c3.875,3.905,3.875,10.237,0,14.142h0C393.218,332.103,386.935,332.103,383.06,328.198z"/>
	<path id="XMLID_1472_" style="fill:#582A00;" d="M139.842,420h149.634c1.651,3.107,2.903,6.461,3.67,10H136.172   C136.939,426.461,138.191,423.107,139.842,420z M100.453,450c-1.712,3.099-3.023,6.454-3.846,10h236.105   c-0.823-3.546-2.134-6.901-3.846-10H100.453z"/>
	<path id="XMLID_1261_" style="fill:#819692;" d="M397.386,172.635c0,93.888-75.526,170-168.693,170S60,266.523,60,172.635   s75.526-170,168.693-170S397.386,78.746,397.386,172.635z"/>
	<path id="XMLID_1259_" style="fill:#8AA6A1;" d="M377.589,152.71c0,75.06-60.38,135.909-134.863,135.909   S107.862,227.77,107.862,152.71s60.38-135.909,134.863-135.909S377.589,77.65,377.589,152.71z"/>
	<path id="XMLID_1253_" style="fill:#9C5C2B;" d="M298.044,196.246c2.675,0,4.489,2.742,3.46,5.231L257.77,307.254   c-0.582,1.408-1.947,2.325-3.46,2.325h-16.245h-9.372h-16.244c-1.513,0-2.878-0.917-3.46-2.325l-41.032-99.239   c-0.582-1.408-1.947-2.325-3.46-2.325h-10.778h-16.737c-1.253,0-2.424-0.631-3.119-1.682l-16.244-24.556   c-0.839-1.269-0.839-2.922,0-4.191l34.988-52.889c0.695-1.051,1.866-1.682,3.119-1.682h16.737h28.115h16.427   c1.42,0,2.718,0.808,3.353,2.088l7.3,14.712c0.635,1.28,1.933,2.088,3.353,2.088h13.303h16.042c1.614,0,3.046,1.041,3.556,2.583   l17.035,51.5c0.51,1.543,1.943,2.583,3.556,2.583h0.422H298.044z M262.874,111.246h8.929c2.07,0,3.749-1.691,3.749-3.778V96.135   c0-2.086-1.678-3.778-3.749-3.778h-3.306c-1.42,0-2.718,0.808-3.353,2.088l-5.623,11.333   C258.275,108.29,260.087,111.246,262.874,111.246z M190.824,49.857h10.218c1.435,0,2.745-0.826,3.372-2.127l12.29-25.5   c1.209-2.509-0.604-5.428-3.372-5.428h-5.157c-1.236,0-2.393,0.614-3.092,1.641l-17.351,25.5   C186.027,46.45,187.808,49.857,190.824,49.857z M277.652,11.021l-48.068,24.22c-0.584,0.294-1.081,0.736-1.443,1.283   l-17.078,25.816c-0.695,1.051-1.866,1.682-3.119,1.682h-14.036c-1.614,0-3.046,1.041-3.556,2.583l-7.237,21.88   c-0.691,2.088,0.529,4.326,2.647,4.86l31.501,7.936c1.277,0.322,2.629-0.055,3.56-0.994l25.517-25.714   c0.703-0.708,1.657-1.106,2.651-1.106h7.211c0.403,0,0.803,0.065,1.185,0.194l25.586,8.595c1.216,0.408,2.14,1.415,2.451,2.668   l8.163,32.904c0.417,1.682,1.917,2.862,3.637,2.862h12.989c1.674,0,3.145-1.118,3.604-2.74l9.157-32.298   c0.46-1.622,1.931-2.74,3.604-2.74h0.638c1.69,0,3.172,1.14,3.617,2.784l18.941,69.988c0.445,1.644,1.926,2.784,3.617,2.784h13.017   c1.69,0,3.172-1.14,3.617-2.784l13.272-49.04c0.227-0.838,0.165-1.731-0.182-2.525c-19.299-44.108-56.652-78.39-102.632-93.321   C279.547,10.495,278.529,10.579,277.652,11.021z M244.599,111.246h-12.157c-2.07,0-3.749,1.691-3.749,3.778v1.657   c0,1.786,1.242,3.329,2.976,3.697l11.232,2.383c1.998,0.424,3.966-0.842,4.425-2.847l0.925-4.04   C248.793,113.506,247.009,111.246,244.599,111.246z"/>
	<path id="XMLID_1235_" style="fill:#A2713E;" d="M301.505,201.477l-2.941,7.113c-6.447,15.592-21.565,25.749-38.326,25.749h0   c-16.762,0-31.88-10.157-38.327-25.749l-10.195-24.658c-0.582-1.408-1.947-2.325-3.46-2.325h-10.778h-18.187   c-0.922,0-1.669-0.753-1.669-1.682l0,0c-10.676-16.139-10.676-37.164,0-53.302l3.924-5.932h19.032h16.427   c1.42,0,2.718,0.808,3.353,2.088l7.3,14.712c0.635,1.28,1.933,2.088,3.353,2.088h13.303h16.042c1.614,0,3.046,1.04,3.556,2.583   l17.035,51.5c0.51,1.543,1.943,2.583,3.556,2.583h0.422h13.121C300.719,196.246,302.534,198.988,301.505,201.477z M336.132,41.602   c-0.905-0.754-1.815-1.503-2.735-2.238c-0.635-0.507-1.278-1.004-1.92-1.502c-0.61-0.473-1.222-0.944-1.839-1.409   c-0.659-0.497-1.319-0.991-1.986-1.479c-0.685-0.502-1.378-0.993-2.072-1.484c-0.495-0.351-0.98-0.714-1.479-1.06h-0.016   c-13.286-9.204-27.942-16.544-43.605-21.631c-0.934-0.303-1.952-0.219-2.829,0.223l-22.533,11.354l6.639,16.057   c6.447,15.592,21.565,25.749,38.327,25.749c4.813,0,9.49-0.838,13.865-2.402l31.394,7.909c1.277,0.322,2.629-0.055,3.56-0.994   l7.289-7.346C350.062,54.22,343.345,47.619,336.132,41.602z"/>
</g>
</svg>