<?xml version="1.0" encoding="UTF-8" standalone="no"?>
<svg
   height="24"
   width="24"
   version="1.1"
   id="svg4"
   sodipodi:docname="favicon.svg"
   inkscape:version="1.2.2 (b0a8486541, 2022-12-01)"
   xmlns:inkscape="http://www.inkscape.org/namespaces/inkscape"
   xmlns:sodipodi="http://sodipodi.sourceforge.net/DTD/sodipodi-0.dtd"
   xmlns="http://www.w3.org/2000/svg"
   xmlns:svg="http://www.w3.org/2000/svg">
  <defs
     id="defs8" />
  <sodipodi:namedview
     id="namedview6"
     pagecolor="#ffffff"
     bordercolor="#000000"
     borderopacity="0.25"
     inkscape:showpageshadow="2"
     inkscape:pageopacity="0.0"
     inkscape:pagecheckerboard="0"
     inkscape:deskcolor="#d1d1d1"
     showgrid="false"
     inkscape:zoom="12.610071"
     inkscape:cx="14.353607"
     inkscape:cy="7.8905187"
     inkscape:window-width="828"
     inkscape:window-height="1025"
     inkscape:window-x="0"
     inkscape:window-y="0"
     inkscape:window-maximized="1"
     inkscape:current-layer="svg4" />
  <path
     d="m 3.9391678,22.363927 q -0.9500267,0 -1.6271366,-0.675958 -0.6759584,-0.67711 -0.6759584,-1.627137 V 3.9391678 q 0,-0.9500267 0.6759584,-1.6271366 Q 2.9891411,1.6360728 3.9391678,1.6360728 H 16.60619 l 5.757737,5.7577373 V 20.060832 q 0,0.950027 -0.675958,1.627137 -0.67711,0.675958 -1.627137,0.675958 z m 0,-2.303095 H 20.060832 V 8.5453576 h -4.60619 V 3.9391678 H 3.9391678 Z M 6.2422627,17.757737 H 17.757737 V 15.454642 H 6.2422627 Z m 0,-9.2123794 H 12 V 6.2422627 H 6.2422627 Z m 0,4.6061904 H 17.757737 V 10.848452 H 6.2422627 Z M 3.9391678,3.9391678 V 8.5453576 3.9391678 20.060832 Z"
     id="path2"
     style="fill:#ebbcba;fill-opacity:1;stroke-width:1.15155" />
</svg>
